<mxfile host="app.diagrams.net" agent="Mozilla/5.0 (X11; Linux x86_64; rv:135.0) Gecko/20100101 Firefox/135.0" version="26.0.16" pages="3">
  <diagram name="4K" id="Kakec3sf8Fg3FkyqWAI9">
    <mxGraphModel dx="1428" dy="800" grid="1" gridSize="10" guides="1" tooltips="1" connect="1" arrows="1" fold="1" page="1" pageScale="1" pageWidth="827" pageHeight="1169" math="0" shadow="0">
      <root>
        <mxCell id="0" />
        <mxCell id="1" parent="0" />
        <object placeholders="1" c4Name="Meta Cinema" c4Type="Software System" c4Description="Сервис просмотра фильмов на основе рекомендательной системы" label="&lt;font style=&quot;font-size: 16px&quot;&gt;&lt;b&gt;%c4Name%&lt;/b&gt;&lt;/font&gt;&lt;div&gt;[%c4Type%]&lt;/div&gt;&lt;br&gt;&lt;div&gt;&lt;font style=&quot;font-size: 11px&quot;&gt;&lt;font color=&quot;#cccccc&quot;&gt;%c4Description%&lt;/font&gt;&lt;/div&gt;" id="dBlyztS5-ji8Xi9lmAJd-11">
          <mxCell style="rounded=1;whiteSpace=wrap;html=1;labelBackgroundColor=none;fillColor=#1061B0;fontColor=#ffffff;align=center;arcSize=10;strokeColor=#0D5091;metaEdit=1;resizable=0;points=[[0.25,0,0],[0.5,0,0],[0.75,0,0],[1,0.25,0],[1,0.5,0],[1,0.75,0],[0.75,1,0],[0.5,1,0],[0.25,1,0],[0,0.75,0],[0,0.5,0],[0,0.25,0]];" parent="1" vertex="1">
            <mxGeometry x="260" y="500" width="240" height="120" as="geometry" />
          </mxCell>
        </object>
        <object placeholders="1" c4Name="Клиент" c4Type="Person" label="&lt;font style=&quot;font-size: 16px&quot;&gt;&lt;b&gt;%c4Name%&lt;/b&gt;&lt;/font&gt;&lt;div&gt;[%c4Type%]&lt;/div&gt;&lt;br&gt;&lt;div&gt;&lt;font style=&quot;font-size: 11px&quot;&gt;&lt;font color=&quot;#cccccc&quot;&gt;%c4Description%&lt;/font&gt;&lt;/div&gt;" c4Description="Получает рекомендации по просмотру фильмов" id="zUO8Bv-C6Ej9emoUoZGL-9">
          <mxCell style="html=1;fontSize=11;dashed=0;whiteSpace=wrap;fillColor=#083F75;strokeColor=#06315C;fontColor=#ffffff;shape=mxgraph.c4.person2;align=center;metaEdit=1;points=[[0.5,0,0],[1,0.5,0],[1,0.75,0],[0.75,1,0],[0.5,1,0],[0.25,1,0],[0,0.75,0],[0,0.5,0]];resizable=0;" parent="1" vertex="1">
            <mxGeometry x="20" y="190" width="200" height="180" as="geometry" />
          </mxCell>
        </object>
        <object placeholders="1" c4Name="Администратор" c4Type="Admin" label="&lt;font style=&quot;font-size: 16px&quot;&gt;&lt;b&gt;%c4Name%&lt;/b&gt;&lt;/font&gt;&lt;div&gt;[%c4Type%]&lt;/div&gt;&lt;br&gt;&lt;div&gt;&lt;font style=&quot;font-size: 11px&quot;&gt;&lt;font color=&quot;#cccccc&quot;&gt;%c4Description%&lt;/font&gt;&lt;/div&gt;" c4Description="Администрирует сервис, модерирует создание, удаление, обновление фильмов" id="zUO8Bv-C6Ej9emoUoZGL-10">
          <mxCell style="html=1;fontSize=11;dashed=0;whiteSpace=wrap;fillColor=#083F75;strokeColor=#06315C;fontColor=#ffffff;shape=mxgraph.c4.person2;align=center;metaEdit=1;points=[[0.5,0,0],[1,0.5,0],[1,0.75,0],[0.75,1,0],[0.5,1,0],[0.25,1,0],[0,0.75,0],[0,0.5,0]];resizable=0;" parent="1" vertex="1">
            <mxGeometry x="550" y="190" width="200" height="180" as="geometry" />
          </mxCell>
        </object>
        <object placeholders="1" c4Type="Relationship" c4Description="Ищет фильмы,&#xa;Добавляет в избранное,&#xa; Смотрит рекомендации,&#xa; Смотрит рекомендации группой друзей" label="&lt;div style=&quot;text-align: left&quot;&gt;&lt;div style=&quot;text-align: center&quot;&gt;&lt;b&gt;%c4Description%&lt;/b&gt;&lt;/div&gt;" id="dBlyztS5-ji8Xi9lmAJd-33">
          <mxCell style="endArrow=blockThin;html=1;fontSize=10;fontColor=#404040;strokeWidth=1;endFill=1;strokeColor=#828282;elbow=vertical;metaEdit=1;endSize=14;startSize=14;jumpStyle=arc;jumpSize=16;rounded=0;edgeStyle=orthogonalEdgeStyle;exitX=0.5;exitY=1;exitDx=0;exitDy=0;exitPerimeter=0;" parent="1" source="zUO8Bv-C6Ej9emoUoZGL-9" target="dBlyztS5-ji8Xi9lmAJd-11" edge="1">
            <mxGeometry x="-0.04" width="240" relative="1" as="geometry">
              <mxPoint x="252.68999999999983" y="370" as="sourcePoint" />
              <mxPoint x="319.49" y="558.5" as="targetPoint" />
              <Array as="points">
                <mxPoint x="120" y="430" />
                <mxPoint x="340" y="430" />
              </Array>
              <mxPoint as="offset" />
            </mxGeometry>
          </mxCell>
        </object>
        <object placeholders="1" c4Type="Relationship" c4Description="Добавляет новые фильмы в базу,&#xa;Удаляет фильмы,&#xa; обновляет фильмы" label="&lt;div style=&quot;text-align: left&quot;&gt;&lt;div style=&quot;text-align: center&quot;&gt;&lt;b&gt;%c4Description%&lt;/b&gt;&lt;/div&gt;" id="dBlyztS5-ji8Xi9lmAJd-34">
          <mxCell style="endArrow=blockThin;html=1;fontSize=10;fontColor=#404040;strokeWidth=1;endFill=1;strokeColor=#828282;elbow=vertical;metaEdit=1;endSize=14;startSize=14;jumpStyle=arc;jumpSize=16;rounded=0;edgeStyle=orthogonalEdgeStyle;exitX=0.5;exitY=1;exitDx=0;exitDy=0;exitPerimeter=0;entryX=0.667;entryY=-0.02;entryDx=0;entryDy=0;entryPerimeter=0;" parent="1" source="zUO8Bv-C6Ej9emoUoZGL-10" target="dBlyztS5-ji8Xi9lmAJd-11" edge="1">
            <mxGeometry width="240" relative="1" as="geometry">
              <mxPoint x="450" y="430" as="sourcePoint" />
              <mxPoint x="690" y="430" as="targetPoint" />
            </mxGeometry>
          </mxCell>
        </object>
        <mxCell id="uJUrBmdMpoPjMHtC0jyH-1" value="Администраторский CRUD" style="ellipse;whiteSpace=wrap;html=1;" parent="1" vertex="1">
          <mxGeometry x="717" y="210" width="120" height="80" as="geometry" />
        </mxCell>
      </root>
    </mxGraphModel>
  </diagram>
  <diagram id="8keUY8ROW9CdrOAik-ve" name="Use Case">
    <mxGraphModel grid="1" page="1" gridSize="10" guides="1" tooltips="1" connect="1" arrows="1" fold="1" pageScale="1" pageWidth="827" pageHeight="1169" math="0" shadow="0">
      <root>
        <mxCell id="0" />
        <mxCell id="1" parent="0" />
        <mxCell id="vMTJXHbmenpRYhP7tRY7-1" value="InvestTrack System" style="shape=umlFrame;whiteSpace=wrap;html=1;pointerEvents=0;recursiveResize=0;container=1;collapsible=0;width=160;" vertex="1" parent="1">
          <mxGeometry x="1180" y="1570" width="940" height="1740" as="geometry" />
        </mxCell>
        <mxCell id="vMTJXHbmenpRYhP7tRY7-8" value="Мониторинг состояния системы" style="ellipse;whiteSpace=wrap;html=1;" vertex="1" parent="vMTJXHbmenpRYhP7tRY7-1">
          <mxGeometry x="140" y="70" width="120" height="80" as="geometry" />
        </mxCell>
        <mxCell id="vMTJXHbmenpRYhP7tRY7-9" value="Просмотр метрик покупок" style="ellipse;whiteSpace=wrap;html=1;" vertex="1" parent="vMTJXHbmenpRYhP7tRY7-1">
          <mxGeometry x="140" y="190" width="120" height="80" as="geometry" />
        </mxCell>
        <mxCell id="vMTJXHbmenpRYhP7tRY7-10" value="Управление пользователями" style="ellipse;whiteSpace=wrap;html=1;" vertex="1" parent="vMTJXHbmenpRYhP7tRY7-1">
          <mxGeometry x="140" y="310" width="120" height="80" as="geometry" />
        </mxCell>
        <mxCell id="vMTJXHbmenpRYhP7tRY7-13" value="Управление блогом" style="ellipse;whiteSpace=wrap;html=1;" vertex="1" parent="vMTJXHbmenpRYhP7tRY7-1">
          <mxGeometry x="140" y="580" width="120" height="80" as="geometry" />
        </mxCell>
        <mxCell id="vMTJXHbmenpRYhP7tRY7-14" value="Просмотр портфеля клиента" style="ellipse;whiteSpace=wrap;html=1;" vertex="1" parent="vMTJXHbmenpRYhP7tRY7-1">
          <mxGeometry x="140" y="690" width="120" height="80" as="geometry" />
        </mxCell>
        <mxCell id="vMTJXHbmenpRYhP7tRY7-15" value="Консультация" style="ellipse;whiteSpace=wrap;html=1;" vertex="1" parent="vMTJXHbmenpRYhP7tRY7-1">
          <mxGeometry x="710" y="1260" width="120" height="80" as="geometry" />
        </mxCell>
        <mxCell id="vMTJXHbmenpRYhP7tRY7-16" value="Редактирование блога" style="ellipse;whiteSpace=wrap;html=1;" vertex="1" parent="vMTJXHbmenpRYhP7tRY7-1">
          <mxGeometry x="140" y="930" width="120" height="80" as="geometry" />
        </mxCell>
        <mxCell id="vMTJXHbmenpRYhP7tRY7-29" value="Просмотр блога" style="ellipse;whiteSpace=wrap;html=1;" vertex="1" parent="vMTJXHbmenpRYhP7tRY7-1">
          <mxGeometry x="140" y="1200" width="120" height="80" as="geometry" />
        </mxCell>
        <mxCell id="vMTJXHbmenpRYhP7tRY7-47" value="Подписка на сервис" style="ellipse;whiteSpace=wrap;html=1;" vertex="1" parent="vMTJXHbmenpRYhP7tRY7-1">
          <mxGeometry x="140" y="1320" width="120" height="80" as="geometry" />
        </mxCell>
        <mxCell id="vMTJXHbmenpRYhP7tRY7-48" value="Просмотр данных биржевых систем" style="ellipse;whiteSpace=wrap;html=1;" vertex="1" parent="vMTJXHbmenpRYhP7tRY7-1">
          <mxGeometry x="140" y="1590" width="120" height="80" as="geometry" />
        </mxCell>
        <mxCell id="vMTJXHbmenpRYhP7tRY7-58" style="edgeStyle=orthogonalEdgeStyle;rounded=0;orthogonalLoop=1;jettySize=auto;html=1;entryX=1;entryY=0.5;entryDx=0;entryDy=0;endArrow=none;endFill=0;startArrow=blockThin;startFill=0;" edge="1" parent="vMTJXHbmenpRYhP7tRY7-1" source="vMTJXHbmenpRYhP7tRY7-55" target="vMTJXHbmenpRYhP7tRY7-10">
          <mxGeometry relative="1" as="geometry" />
        </mxCell>
        <mxCell id="vMTJXHbmenpRYhP7tRY7-55" value="Клиентский CRUD" style="ellipse;whiteSpace=wrap;html=1;" vertex="1" parent="vMTJXHbmenpRYhP7tRY7-1">
          <mxGeometry x="480" y="200" width="120" height="80" as="geometry" />
        </mxCell>
        <mxCell id="vMTJXHbmenpRYhP7tRY7-59" style="edgeStyle=orthogonalEdgeStyle;rounded=0;orthogonalLoop=1;jettySize=auto;html=1;entryX=1;entryY=0.5;entryDx=0;entryDy=0;endArrow=none;endFill=0;startArrow=blockThin;startFill=0;" edge="1" parent="vMTJXHbmenpRYhP7tRY7-1" source="vMTJXHbmenpRYhP7tRY7-56" target="vMTJXHbmenpRYhP7tRY7-10">
          <mxGeometry relative="1" as="geometry">
            <Array as="points">
              <mxPoint x="380" y="350" />
              <mxPoint x="380" y="350" />
            </Array>
          </mxGeometry>
        </mxCell>
        <mxCell id="vMTJXHbmenpRYhP7tRY7-56" value="Копирайтский CRUD" style="ellipse;whiteSpace=wrap;html=1;" vertex="1" parent="vMTJXHbmenpRYhP7tRY7-1">
          <mxGeometry x="480" y="310" width="120" height="80" as="geometry" />
        </mxCell>
        <mxCell id="vMTJXHbmenpRYhP7tRY7-60" style="edgeStyle=orthogonalEdgeStyle;rounded=0;orthogonalLoop=1;jettySize=auto;html=1;entryX=1;entryY=0.5;entryDx=0;entryDy=0;endArrow=none;endFill=0;exitX=0;exitY=0.5;exitDx=0;exitDy=0;startArrow=blockThin;startFill=0;" edge="1" parent="vMTJXHbmenpRYhP7tRY7-1" source="vMTJXHbmenpRYhP7tRY7-57" target="vMTJXHbmenpRYhP7tRY7-10">
          <mxGeometry relative="1" as="geometry">
            <mxPoint x="490" y="510" as="sourcePoint" />
            <mxPoint x="270" y="380" as="targetPoint" />
            <Array as="points">
              <mxPoint x="370" y="480" />
              <mxPoint x="370" y="350" />
            </Array>
          </mxGeometry>
        </mxCell>
        <mxCell id="-_E0Nx6kBKcC4vUgq1Ex-2" value="include" style="edgeLabel;html=1;align=center;verticalAlign=middle;resizable=0;points=[];" connectable="0" vertex="1" parent="vMTJXHbmenpRYhP7tRY7-60">
          <mxGeometry x="0.6717" relative="1" as="geometry">
            <mxPoint as="offset" />
          </mxGeometry>
        </mxCell>
        <mxCell id="vMTJXHbmenpRYhP7tRY7-57" value="Консультантский CRUD" style="ellipse;whiteSpace=wrap;html=1;" vertex="1" parent="vMTJXHbmenpRYhP7tRY7-1">
          <mxGeometry x="480" y="440" width="120" height="80" as="geometry" />
        </mxCell>
        <mxCell id="-_E0Nx6kBKcC4vUgq1Ex-5" style="edgeStyle=orthogonalEdgeStyle;rounded=0;orthogonalLoop=1;jettySize=auto;html=1;endArrow=block;endFill=0;" edge="1" parent="vMTJXHbmenpRYhP7tRY7-1" source="-_E0Nx6kBKcC4vUgq1Ex-4" target="vMTJXHbmenpRYhP7tRY7-16">
          <mxGeometry relative="1" as="geometry" />
        </mxCell>
        <mxCell id="-_E0Nx6kBKcC4vUgq1Ex-6" value="extend" style="edgeLabel;html=1;align=center;verticalAlign=middle;resizable=0;points=[];" connectable="0" vertex="1" parent="-_E0Nx6kBKcC4vUgq1Ex-5">
          <mxGeometry x="0.1081" y="4" relative="1" as="geometry">
            <mxPoint y="-4" as="offset" />
          </mxGeometry>
        </mxCell>
        <mxCell id="-_E0Nx6kBKcC4vUgq1Ex-4" value="Пост-CRUD" style="ellipse;whiteSpace=wrap;html=1;" vertex="1" parent="vMTJXHbmenpRYhP7tRY7-1">
          <mxGeometry x="440" y="930" width="120" height="80" as="geometry" />
        </mxCell>
        <mxCell id="vMTJXHbmenpRYhP7tRY7-30" style="edgeStyle=orthogonalEdgeStyle;rounded=0;orthogonalLoop=1;jettySize=auto;html=1;" edge="1" parent="1" source="vMTJXHbmenpRYhP7tRY7-2" target="vMTJXHbmenpRYhP7tRY7-8">
          <mxGeometry relative="1" as="geometry" />
        </mxCell>
        <mxCell id="vMTJXHbmenpRYhP7tRY7-31" style="edgeStyle=orthogonalEdgeStyle;rounded=0;orthogonalLoop=1;jettySize=auto;html=1;entryX=0;entryY=0.5;entryDx=0;entryDy=0;" edge="1" parent="1" source="vMTJXHbmenpRYhP7tRY7-2" target="vMTJXHbmenpRYhP7tRY7-9">
          <mxGeometry relative="1" as="geometry" />
        </mxCell>
        <mxCell id="vMTJXHbmenpRYhP7tRY7-54" style="edgeStyle=orthogonalEdgeStyle;rounded=0;orthogonalLoop=1;jettySize=auto;html=1;entryX=0;entryY=0;entryDx=0;entryDy=0;" edge="1" parent="1" source="vMTJXHbmenpRYhP7tRY7-2" target="vMTJXHbmenpRYhP7tRY7-10">
          <mxGeometry relative="1" as="geometry">
            <Array as="points">
              <mxPoint x="1220" y="1740" />
              <mxPoint x="1220" y="1892" />
            </Array>
          </mxGeometry>
        </mxCell>
        <mxCell id="vMTJXHbmenpRYhP7tRY7-2" value="Владелец системы" style="shape=umlActor;verticalLabelPosition=bottom;verticalAlign=top;html=1;outlineConnect=0;" vertex="1" parent="1">
          <mxGeometry x="1090" y="1710" width="30" height="60" as="geometry" />
        </mxCell>
        <mxCell id="vMTJXHbmenpRYhP7tRY7-35" style="edgeStyle=orthogonalEdgeStyle;rounded=0;orthogonalLoop=1;jettySize=auto;html=1;entryX=0;entryY=0.5;entryDx=0;entryDy=0;" edge="1" parent="1" source="vMTJXHbmenpRYhP7tRY7-3" target="vMTJXHbmenpRYhP7tRY7-10">
          <mxGeometry relative="1" as="geometry" />
        </mxCell>
        <mxCell id="vMTJXHbmenpRYhP7tRY7-38" style="edgeStyle=orthogonalEdgeStyle;rounded=0;orthogonalLoop=1;jettySize=auto;html=1;entryX=0;entryY=0.5;entryDx=0;entryDy=0;" edge="1" parent="1" source="vMTJXHbmenpRYhP7tRY7-3" target="vMTJXHbmenpRYhP7tRY7-13">
          <mxGeometry relative="1" as="geometry" />
        </mxCell>
        <mxCell id="vMTJXHbmenpRYhP7tRY7-3" value="Администратор&lt;br&gt;системы" style="shape=umlActor;verticalLabelPosition=bottom;verticalAlign=top;html=1;outlineConnect=0;" vertex="1" parent="1">
          <mxGeometry x="1090" y="2030" width="30" height="60" as="geometry" />
        </mxCell>
        <mxCell id="vMTJXHbmenpRYhP7tRY7-39" style="edgeStyle=orthogonalEdgeStyle;rounded=0;orthogonalLoop=1;jettySize=auto;html=1;entryX=0.5;entryY=0;entryDx=0;entryDy=0;" edge="1" parent="1" source="vMTJXHbmenpRYhP7tRY7-4" target="vMTJXHbmenpRYhP7tRY7-15">
          <mxGeometry relative="1" as="geometry">
            <Array as="points">
              <mxPoint x="1950" y="2420" />
            </Array>
          </mxGeometry>
        </mxCell>
        <mxCell id="vMTJXHbmenpRYhP7tRY7-51" value="Проводит" style="edgeLabel;html=1;align=center;verticalAlign=middle;resizable=0;points=[];" connectable="0" vertex="1" parent="vMTJXHbmenpRYhP7tRY7-39">
          <mxGeometry x="0.8424" y="5" relative="1" as="geometry">
            <mxPoint as="offset" />
          </mxGeometry>
        </mxCell>
        <mxCell id="vMTJXHbmenpRYhP7tRY7-40" style="edgeStyle=orthogonalEdgeStyle;rounded=0;orthogonalLoop=1;jettySize=auto;html=1;entryX=0;entryY=0.5;entryDx=0;entryDy=0;" edge="1" parent="1" source="vMTJXHbmenpRYhP7tRY7-4" target="vMTJXHbmenpRYhP7tRY7-14">
          <mxGeometry relative="1" as="geometry" />
        </mxCell>
        <mxCell id="vMTJXHbmenpRYhP7tRY7-41" style="edgeStyle=orthogonalEdgeStyle;rounded=0;orthogonalLoop=1;jettySize=auto;html=1;entryX=0;entryY=0.5;entryDx=0;entryDy=0;" edge="1" parent="1" source="vMTJXHbmenpRYhP7tRY7-4" target="vMTJXHbmenpRYhP7tRY7-16">
          <mxGeometry relative="1" as="geometry" />
        </mxCell>
        <mxCell id="vMTJXHbmenpRYhP7tRY7-4" value="Финансовый консультант" style="shape=umlActor;verticalLabelPosition=bottom;verticalAlign=top;html=1;outlineConnect=0;" vertex="1" parent="1">
          <mxGeometry x="1090" y="2390" width="30" height="60" as="geometry" />
        </mxCell>
        <mxCell id="vMTJXHbmenpRYhP7tRY7-43" style="edgeStyle=orthogonalEdgeStyle;rounded=0;orthogonalLoop=1;jettySize=auto;html=1;entryX=0;entryY=1;entryDx=0;entryDy=0;" edge="1" parent="1" source="vMTJXHbmenpRYhP7tRY7-5" target="vMTJXHbmenpRYhP7tRY7-16">
          <mxGeometry relative="1" as="geometry">
            <Array as="points">
              <mxPoint x="1220" y="2680" />
              <mxPoint x="1220" y="2568" />
            </Array>
          </mxGeometry>
        </mxCell>
        <mxCell id="vMTJXHbmenpRYhP7tRY7-46" style="edgeStyle=orthogonalEdgeStyle;rounded=0;orthogonalLoop=1;jettySize=auto;html=1;entryX=0;entryY=0.5;entryDx=0;entryDy=0;" edge="1" parent="1" source="vMTJXHbmenpRYhP7tRY7-5" target="vMTJXHbmenpRYhP7tRY7-29">
          <mxGeometry relative="1" as="geometry">
            <Array as="points">
              <mxPoint x="1220" y="2680" />
              <mxPoint x="1220" y="2810" />
            </Array>
          </mxGeometry>
        </mxCell>
        <mxCell id="vMTJXHbmenpRYhP7tRY7-5" value="Копирайтер" style="shape=umlActor;verticalLabelPosition=bottom;verticalAlign=top;html=1;outlineConnect=0;" vertex="1" parent="1">
          <mxGeometry x="1090" y="2640" width="30" height="60" as="geometry" />
        </mxCell>
        <mxCell id="vMTJXHbmenpRYhP7tRY7-49" style="edgeStyle=orthogonalEdgeStyle;rounded=0;orthogonalLoop=1;jettySize=auto;html=1;entryX=0.5;entryY=1;entryDx=0;entryDy=0;" edge="1" parent="1" source="vMTJXHbmenpRYhP7tRY7-6" target="vMTJXHbmenpRYhP7tRY7-15">
          <mxGeometry relative="1" as="geometry" />
        </mxCell>
        <mxCell id="vMTJXHbmenpRYhP7tRY7-50" value="Консультируется" style="edgeLabel;html=1;align=center;verticalAlign=middle;resizable=0;points=[];" connectable="0" vertex="1" parent="vMTJXHbmenpRYhP7tRY7-49">
          <mxGeometry x="0.8583" y="-2" relative="1" as="geometry">
            <mxPoint y="-1" as="offset" />
          </mxGeometry>
        </mxCell>
        <mxCell id="vMTJXHbmenpRYhP7tRY7-52" style="edgeStyle=orthogonalEdgeStyle;rounded=0;orthogonalLoop=1;jettySize=auto;html=1;entryX=0;entryY=0.5;entryDx=0;entryDy=0;" edge="1" parent="1" source="vMTJXHbmenpRYhP7tRY7-6" target="vMTJXHbmenpRYhP7tRY7-47">
          <mxGeometry relative="1" as="geometry" />
        </mxCell>
        <mxCell id="vMTJXHbmenpRYhP7tRY7-53" style="edgeStyle=orthogonalEdgeStyle;rounded=0;orthogonalLoop=1;jettySize=auto;html=1;entryX=0;entryY=0.5;entryDx=0;entryDy=0;" edge="1" parent="1" source="vMTJXHbmenpRYhP7tRY7-6" target="vMTJXHbmenpRYhP7tRY7-48">
          <mxGeometry relative="1" as="geometry" />
        </mxCell>
        <mxCell id="vMTJXHbmenpRYhP7tRY7-6" value="Клиент" style="shape=umlActor;verticalLabelPosition=bottom;verticalAlign=top;html=1;outlineConnect=0;" vertex="1" parent="1">
          <mxGeometry x="1090" y="3050" width="30" height="60" as="geometry" />
        </mxCell>
      </root>
    </mxGraphModel>
  </diagram>
  <diagram id="iTyjaajKjhF5nHhOXYek" name="Classes">
    <mxGraphModel grid="1" page="1" gridSize="10" guides="1" tooltips="1" connect="1" arrows="1" fold="1" pageScale="1" pageWidth="827" pageHeight="1169" math="0" shadow="0">
      <root>
        <mxCell id="0" />
        <mxCell id="1" parent="0" />
        <mxCell id="pPqEPjzdIibT3m7-79Cl-1" value="User" style="swimlane;fontStyle=0;align=center;verticalAlign=top;childLayout=stackLayout;horizontal=1;startSize=20;horizontalStack=0;resizeParent=1;resizeParentMax=0;resizeLast=0;collapsible=0;marginBottom=0;html=1;whiteSpace=wrap;" vertex="1" parent="1">
          <mxGeometry x="-945" y="-1290" width="140" height="128" as="geometry" />
        </mxCell>
        <mxCell id="pPqEPjzdIibT3m7-79Cl-3" value="userId: int" style="text;html=1;strokeColor=none;fillColor=none;align=left;verticalAlign=middle;spacingLeft=4;spacingRight=4;overflow=hidden;rotatable=0;points=[[0,0.5],[1,0.5]];portConstraint=eastwest;whiteSpace=wrap;" vertex="1" parent="pPqEPjzdIibT3m7-79Cl-1">
          <mxGeometry y="20" width="140" height="20" as="geometry" />
        </mxCell>
        <mxCell id="pPqEPjzdIibT3m7-79Cl-9" value="name: String" style="text;html=1;strokeColor=none;fillColor=none;align=left;verticalAlign=middle;spacingLeft=4;spacingRight=4;overflow=hidden;rotatable=0;points=[[0,0.5],[1,0.5]];portConstraint=eastwest;whiteSpace=wrap;" vertex="1" parent="pPqEPjzdIibT3m7-79Cl-1">
          <mxGeometry y="40" width="140" height="20" as="geometry" />
        </mxCell>
        <mxCell id="pPqEPjzdIibT3m7-79Cl-10" value="email: String" style="text;html=1;strokeColor=none;fillColor=none;align=left;verticalAlign=middle;spacingLeft=4;spacingRight=4;overflow=hidden;rotatable=0;points=[[0,0.5],[1,0.5]];portConstraint=eastwest;whiteSpace=wrap;" vertex="1" parent="pPqEPjzdIibT3m7-79Cl-1">
          <mxGeometry y="60" width="140" height="20" as="geometry" />
        </mxCell>
        <mxCell id="pPqEPjzdIibT3m7-79Cl-6" value="" style="line;strokeWidth=1;fillColor=none;align=left;verticalAlign=middle;spacingTop=-1;spacingLeft=3;spacingRight=3;rotatable=0;labelPosition=right;points=[];portConstraint=eastwest;" vertex="1" parent="pPqEPjzdIibT3m7-79Cl-1">
          <mxGeometry y="80" width="140" height="8" as="geometry" />
        </mxCell>
        <mxCell id="pPqEPjzdIibT3m7-79Cl-8" value="login()&lt;div&gt;&lt;br&gt;&lt;/div&gt;" style="text;html=1;strokeColor=none;fillColor=none;align=left;verticalAlign=middle;spacingLeft=4;spacingRight=4;overflow=hidden;rotatable=0;points=[[0,0.5],[1,0.5]];portConstraint=eastwest;whiteSpace=wrap;" vertex="1" parent="pPqEPjzdIibT3m7-79Cl-1">
          <mxGeometry y="88" width="140" height="20" as="geometry" />
        </mxCell>
        <mxCell id="pPqEPjzdIibT3m7-79Cl-11" value="&lt;div&gt;logout()&lt;/div&gt;" style="text;html=1;strokeColor=none;fillColor=none;align=left;verticalAlign=middle;spacingLeft=4;spacingRight=4;overflow=hidden;rotatable=0;points=[[0,0.5],[1,0.5]];portConstraint=eastwest;whiteSpace=wrap;" vertex="1" parent="pPqEPjzdIibT3m7-79Cl-1">
          <mxGeometry y="108" width="140" height="20" as="geometry" />
        </mxCell>
        <mxCell id="pPqEPjzdIibT3m7-79Cl-12" value="FinancialAdvisor" style="swimlane;fontStyle=0;align=center;verticalAlign=top;childLayout=stackLayout;horizontal=1;startSize=20;horizontalStack=0;resizeParent=1;resizeParentMax=0;resizeLast=0;collapsible=0;marginBottom=0;html=1;whiteSpace=wrap;" vertex="1" parent="1">
          <mxGeometry x="-1490" y="-1040" width="210" height="108" as="geometry" />
        </mxCell>
        <mxCell id="pPqEPjzdIibT3m7-79Cl-15" value="specialization: String" style="text;html=1;strokeColor=none;fillColor=none;align=left;verticalAlign=middle;spacingLeft=4;spacingRight=4;overflow=hidden;rotatable=0;points=[[0,0.5],[1,0.5]];portConstraint=eastwest;whiteSpace=wrap;" vertex="1" parent="pPqEPjzdIibT3m7-79Cl-12">
          <mxGeometry y="20" width="210" height="20" as="geometry" />
        </mxCell>
        <mxCell id="pPqEPjzdIibT3m7-79Cl-16" value="" style="line;strokeWidth=1;fillColor=none;align=left;verticalAlign=middle;spacingTop=-1;spacingLeft=3;spacingRight=3;rotatable=0;labelPosition=right;points=[];portConstraint=eastwest;" vertex="1" parent="pPqEPjzdIibT3m7-79Cl-12">
          <mxGeometry y="40" width="210" height="8" as="geometry" />
        </mxCell>
        <mxCell id="pPqEPjzdIibT3m7-79Cl-18" value="viewClientPortfolio(client: Client)" style="text;html=1;strokeColor=none;fillColor=none;align=left;verticalAlign=middle;spacingLeft=4;spacingRight=4;overflow=hidden;rotatable=0;points=[[0,0.5],[1,0.5]];portConstraint=eastwest;whiteSpace=wrap;" vertex="1" parent="pPqEPjzdIibT3m7-79Cl-12">
          <mxGeometry y="48" width="210" height="20" as="geometry" />
        </mxCell>
        <mxCell id="pPqEPjzdIibT3m7-79Cl-27" value="consultClient(client: Client)" style="text;html=1;strokeColor=none;fillColor=none;align=left;verticalAlign=middle;spacingLeft=4;spacingRight=4;overflow=hidden;rotatable=0;points=[[0,0.5],[1,0.5]];portConstraint=eastwest;whiteSpace=wrap;" vertex="1" parent="pPqEPjzdIibT3m7-79Cl-12">
          <mxGeometry y="68" width="210" height="20" as="geometry" />
        </mxCell>
        <mxCell id="pPqEPjzdIibT3m7-79Cl-28" value="writeBlogPost(post: Article)" style="text;html=1;strokeColor=none;fillColor=none;align=left;verticalAlign=middle;spacingLeft=4;spacingRight=4;overflow=hidden;rotatable=0;points=[[0,0.5],[1,0.5]];portConstraint=eastwest;whiteSpace=wrap;" vertex="1" parent="pPqEPjzdIibT3m7-79Cl-12">
          <mxGeometry y="88" width="210" height="20" as="geometry" />
        </mxCell>
        <mxCell id="pPqEPjzdIibT3m7-79Cl-29" value="Copywriter" style="swimlane;fontStyle=0;align=center;verticalAlign=top;childLayout=stackLayout;horizontal=1;startSize=20;horizontalStack=0;resizeParent=1;resizeParentMax=0;resizeLast=0;collapsible=0;marginBottom=0;html=1;whiteSpace=wrap;" vertex="1" parent="1">
          <mxGeometry x="-1260" y="-1040" width="210" height="108" as="geometry" />
        </mxCell>
        <mxCell id="pPqEPjzdIibT3m7-79Cl-30" value="articles: List&amp;lt;Article&amp;gt;" style="text;html=1;strokeColor=none;fillColor=none;align=left;verticalAlign=middle;spacingLeft=4;spacingRight=4;overflow=hidden;rotatable=0;points=[[0,0.5],[1,0.5]];portConstraint=eastwest;whiteSpace=wrap;" vertex="1" parent="pPqEPjzdIibT3m7-79Cl-29">
          <mxGeometry y="20" width="210" height="20" as="geometry" />
        </mxCell>
        <mxCell id="pPqEPjzdIibT3m7-79Cl-31" value="" style="line;strokeWidth=1;fillColor=none;align=left;verticalAlign=middle;spacingTop=-1;spacingLeft=3;spacingRight=3;rotatable=0;labelPosition=right;points=[];portConstraint=eastwest;" vertex="1" parent="pPqEPjzdIibT3m7-79Cl-29">
          <mxGeometry y="40" width="210" height="8" as="geometry" />
        </mxCell>
        <mxCell id="pPqEPjzdIibT3m7-79Cl-32" value="writeBlogPost(post: Article)" style="text;html=1;strokeColor=none;fillColor=none;align=left;verticalAlign=middle;spacingLeft=4;spacingRight=4;overflow=hidden;rotatable=0;points=[[0,0.5],[1,0.5]];portConstraint=eastwest;whiteSpace=wrap;" vertex="1" parent="pPqEPjzdIibT3m7-79Cl-29">
          <mxGeometry y="48" width="210" height="20" as="geometry" />
        </mxCell>
        <mxCell id="pPqEPjzdIibT3m7-79Cl-33" value="editBlogPost(post: Article)" style="text;html=1;strokeColor=none;fillColor=none;align=left;verticalAlign=middle;spacingLeft=4;spacingRight=4;overflow=hidden;rotatable=0;points=[[0,0.5],[1,0.5]];portConstraint=eastwest;whiteSpace=wrap;" vertex="1" parent="pPqEPjzdIibT3m7-79Cl-29">
          <mxGeometry y="68" width="210" height="20" as="geometry" />
        </mxCell>
        <mxCell id="pPqEPjzdIibT3m7-79Cl-34" value="viewBlog()" style="text;html=1;strokeColor=none;fillColor=none;align=left;verticalAlign=middle;spacingLeft=4;spacingRight=4;overflow=hidden;rotatable=0;points=[[0,0.5],[1,0.5]];portConstraint=eastwest;whiteSpace=wrap;" vertex="1" parent="pPqEPjzdIibT3m7-79Cl-29">
          <mxGeometry y="88" width="210" height="20" as="geometry" />
        </mxCell>
        <mxCell id="pPqEPjzdIibT3m7-79Cl-35" value="SystemAdministrator&amp;nbsp;" style="swimlane;fontStyle=0;align=center;verticalAlign=top;childLayout=stackLayout;horizontal=1;startSize=20;horizontalStack=0;resizeParent=1;resizeParentMax=0;resizeLast=0;collapsible=0;marginBottom=0;html=1;whiteSpace=wrap;" vertex="1" parent="1">
          <mxGeometry x="-980" y="-1040" width="210" height="168" as="geometry" />
        </mxCell>
        <mxCell id="pPqEPjzdIibT3m7-79Cl-36" value="permissions: List&amp;lt;String&amp;gt;" style="text;html=1;strokeColor=none;fillColor=none;align=left;verticalAlign=middle;spacingLeft=4;spacingRight=4;overflow=hidden;rotatable=0;points=[[0,0.5],[1,0.5]];portConstraint=eastwest;whiteSpace=wrap;" vertex="1" parent="pPqEPjzdIibT3m7-79Cl-35">
          <mxGeometry y="20" width="210" height="20" as="geometry" />
        </mxCell>
        <mxCell id="pPqEPjzdIibT3m7-79Cl-37" value="" style="line;strokeWidth=1;fillColor=none;align=left;verticalAlign=middle;spacingTop=-1;spacingLeft=3;spacingRight=3;rotatable=0;labelPosition=right;points=[];portConstraint=eastwest;" vertex="1" parent="pPqEPjzdIibT3m7-79Cl-35">
          <mxGeometry y="40" width="210" height="8" as="geometry" />
        </mxCell>
        <mxCell id="pPqEPjzdIibT3m7-79Cl-39" value="manageClients()" style="text;html=1;strokeColor=none;fillColor=none;align=left;verticalAlign=middle;spacingLeft=4;spacingRight=4;overflow=hidden;rotatable=0;points=[[0,0.5],[1,0.5]];portConstraint=eastwest;whiteSpace=wrap;" vertex="1" parent="pPqEPjzdIibT3m7-79Cl-35">
          <mxGeometry y="48" width="210" height="20" as="geometry" />
        </mxCell>
        <mxCell id="pPqEPjzdIibT3m7-79Cl-41" value="manageConsultants()" style="text;html=1;strokeColor=none;fillColor=none;align=left;verticalAlign=middle;spacingLeft=4;spacingRight=4;overflow=hidden;rotatable=0;points=[[0,0.5],[1,0.5]];portConstraint=eastwest;whiteSpace=wrap;" vertex="1" parent="pPqEPjzdIibT3m7-79Cl-35">
          <mxGeometry y="68" width="210" height="20" as="geometry" />
        </mxCell>
        <mxCell id="pPqEPjzdIibT3m7-79Cl-42" value="manageCopywriters()" style="text;html=1;strokeColor=none;fillColor=none;align=left;verticalAlign=middle;spacingLeft=4;spacingRight=4;overflow=hidden;rotatable=0;points=[[0,0.5],[1,0.5]];portConstraint=eastwest;whiteSpace=wrap;" vertex="1" parent="pPqEPjzdIibT3m7-79Cl-35">
          <mxGeometry y="88" width="210" height="20" as="geometry" />
        </mxCell>
        <mxCell id="pPqEPjzdIibT3m7-79Cl-43" value="manageBlog()" style="text;html=1;strokeColor=none;fillColor=none;align=left;verticalAlign=middle;spacingLeft=4;spacingRight=4;overflow=hidden;rotatable=0;points=[[0,0.5],[1,0.5]];portConstraint=eastwest;whiteSpace=wrap;" vertex="1" parent="pPqEPjzdIibT3m7-79Cl-35">
          <mxGeometry y="108" width="210" height="20" as="geometry" />
        </mxCell>
        <mxCell id="pPqEPjzdIibT3m7-79Cl-40" value="ensureSystemStability()" style="text;html=1;strokeColor=none;fillColor=none;align=left;verticalAlign=middle;spacingLeft=4;spacingRight=4;overflow=hidden;rotatable=0;points=[[0,0.5],[1,0.5]];portConstraint=eastwest;whiteSpace=wrap;" vertex="1" parent="pPqEPjzdIibT3m7-79Cl-35">
          <mxGeometry y="128" width="210" height="20" as="geometry" />
        </mxCell>
        <mxCell id="pPqEPjzdIibT3m7-79Cl-44" value="manageUsers(user: User)" style="text;html=1;strokeColor=none;fillColor=none;align=left;verticalAlign=middle;spacingLeft=4;spacingRight=4;overflow=hidden;rotatable=0;points=[[0,0.5],[1,0.5]];portConstraint=eastwest;whiteSpace=wrap;" vertex="1" parent="pPqEPjzdIibT3m7-79Cl-35">
          <mxGeometry y="148" width="210" height="20" as="geometry" />
        </mxCell>
        <mxCell id="pPqEPjzdIibT3m7-79Cl-45" value="SystemOwner&amp;nbsp;" style="swimlane;fontStyle=0;align=center;verticalAlign=top;childLayout=stackLayout;horizontal=1;startSize=20;horizontalStack=0;resizeParent=1;resizeParentMax=0;resizeLast=0;collapsible=0;marginBottom=0;html=1;whiteSpace=wrap;" vertex="1" parent="1">
          <mxGeometry x="-690" y="-1040" width="210" height="108" as="geometry" />
        </mxCell>
        <mxCell id="pPqEPjzdIibT3m7-79Cl-46" value="permissions: List&amp;lt;String&amp;gt;" style="text;html=1;strokeColor=none;fillColor=none;align=left;verticalAlign=middle;spacingLeft=4;spacingRight=4;overflow=hidden;rotatable=0;points=[[0,0.5],[1,0.5]];portConstraint=eastwest;whiteSpace=wrap;" vertex="1" parent="pPqEPjzdIibT3m7-79Cl-45">
          <mxGeometry y="20" width="210" height="20" as="geometry" />
        </mxCell>
        <mxCell id="pPqEPjzdIibT3m7-79Cl-47" value="" style="line;strokeWidth=1;fillColor=none;align=left;verticalAlign=middle;spacingTop=-1;spacingLeft=3;spacingRight=3;rotatable=0;labelPosition=right;points=[];portConstraint=eastwest;" vertex="1" parent="pPqEPjzdIibT3m7-79Cl-45">
          <mxGeometry y="40" width="210" height="8" as="geometry" />
        </mxCell>
        <mxCell id="pPqEPjzdIibT3m7-79Cl-48" value="viewPurchaseMetrics()" style="text;html=1;strokeColor=none;fillColor=none;align=left;verticalAlign=middle;spacingLeft=4;spacingRight=4;overflow=hidden;rotatable=0;points=[[0,0.5],[1,0.5]];portConstraint=eastwest;whiteSpace=wrap;" vertex="1" parent="pPqEPjzdIibT3m7-79Cl-45">
          <mxGeometry y="48" width="210" height="20" as="geometry" />
        </mxCell>
        <mxCell id="pPqEPjzdIibT3m7-79Cl-49" value="manageSystemUsers(user: User)" style="text;html=1;strokeColor=none;fillColor=none;align=left;verticalAlign=middle;spacingLeft=4;spacingRight=4;overflow=hidden;rotatable=0;points=[[0,0.5],[1,0.5]];portConstraint=eastwest;whiteSpace=wrap;" vertex="1" parent="pPqEPjzdIibT3m7-79Cl-45">
          <mxGeometry y="68" width="210" height="20" as="geometry" />
        </mxCell>
        <mxCell id="pPqEPjzdIibT3m7-79Cl-50" value="monitorSystemStatus()" style="text;html=1;strokeColor=none;fillColor=none;align=left;verticalAlign=middle;spacingLeft=4;spacingRight=4;overflow=hidden;rotatable=0;points=[[0,0.5],[1,0.5]];portConstraint=eastwest;whiteSpace=wrap;" vertex="1" parent="pPqEPjzdIibT3m7-79Cl-45">
          <mxGeometry y="88" width="210" height="20" as="geometry" />
        </mxCell>
        <mxCell id="pPqEPjzdIibT3m7-79Cl-54" value="Client&amp;nbsp;" style="swimlane;fontStyle=0;align=center;verticalAlign=top;childLayout=stackLayout;horizontal=1;startSize=20;horizontalStack=0;resizeParent=1;resizeParentMax=0;resizeLast=0;collapsible=0;marginBottom=0;html=1;whiteSpace=wrap;" vertex="1" parent="1">
          <mxGeometry x="-440" y="-1040" width="320" height="128" as="geometry" />
        </mxCell>
        <mxCell id="pPqEPjzdIibT3m7-79Cl-55" value="subscriptionStatus: boolean" style="text;html=1;strokeColor=none;fillColor=none;align=left;verticalAlign=middle;spacingLeft=4;spacingRight=4;overflow=hidden;rotatable=0;points=[[0,0.5],[1,0.5]];portConstraint=eastwest;whiteSpace=wrap;" vertex="1" parent="pPqEPjzdIibT3m7-79Cl-54">
          <mxGeometry y="20" width="320" height="20" as="geometry" />
        </mxCell>
        <mxCell id="pPqEPjzdIibT3m7-79Cl-63" value="portfolio: Portfolio" style="text;html=1;strokeColor=none;fillColor=none;align=left;verticalAlign=middle;spacingLeft=4;spacingRight=4;overflow=hidden;rotatable=0;points=[[0,0.5],[1,0.5]];portConstraint=eastwest;whiteSpace=wrap;" vertex="1" parent="pPqEPjzdIibT3m7-79Cl-54">
          <mxGeometry y="40" width="320" height="20" as="geometry" />
        </mxCell>
        <mxCell id="pPqEPjzdIibT3m7-79Cl-56" value="" style="line;strokeWidth=1;fillColor=none;align=left;verticalAlign=middle;spacingTop=-1;spacingLeft=3;spacingRight=3;rotatable=0;labelPosition=right;points=[];portConstraint=eastwest;" vertex="1" parent="pPqEPjzdIibT3m7-79Cl-54">
          <mxGeometry y="60" width="320" height="8" as="geometry" />
        </mxCell>
        <mxCell id="pPqEPjzdIibT3m7-79Cl-57" value="subscribeToService()" style="text;html=1;strokeColor=none;fillColor=none;align=left;verticalAlign=middle;spacingLeft=4;spacingRight=4;overflow=hidden;rotatable=0;points=[[0,0.5],[1,0.5]];portConstraint=eastwest;whiteSpace=wrap;" vertex="1" parent="pPqEPjzdIibT3m7-79Cl-54">
          <mxGeometry y="68" width="320" height="20" as="geometry" />
        </mxCell>
        <mxCell id="pPqEPjzdIibT3m7-79Cl-58" value="consultSpecialist(specialist: FinancialAdvisor)" style="text;html=1;strokeColor=none;fillColor=none;align=left;verticalAlign=middle;spacingLeft=4;spacingRight=4;overflow=hidden;rotatable=0;points=[[0,0.5],[1,0.5]];portConstraint=eastwest;whiteSpace=wrap;" vertex="1" parent="pPqEPjzdIibT3m7-79Cl-54">
          <mxGeometry y="88" width="320" height="20" as="geometry" />
        </mxCell>
        <mxCell id="pPqEPjzdIibT3m7-79Cl-59" value="viewExchangeData()" style="text;html=1;strokeColor=none;fillColor=none;align=left;verticalAlign=middle;spacingLeft=4;spacingRight=4;overflow=hidden;rotatable=0;points=[[0,0.5],[1,0.5]];portConstraint=eastwest;whiteSpace=wrap;" vertex="1" parent="pPqEPjzdIibT3m7-79Cl-54">
          <mxGeometry y="108" width="320" height="20" as="geometry" />
        </mxCell>
        <mxCell id="pPqEPjzdIibT3m7-79Cl-64" value="Portfolio&amp;nbsp;" style="swimlane;fontStyle=0;align=center;verticalAlign=top;childLayout=stackLayout;horizontal=1;startSize=20;horizontalStack=0;resizeParent=1;resizeParentMax=0;resizeLast=0;collapsible=0;marginBottom=0;html=1;whiteSpace=wrap;" vertex="1" parent="1">
          <mxGeometry x="-430" y="-790" width="320" height="108" as="geometry" />
        </mxCell>
        <mxCell id="pPqEPjzdIibT3m7-79Cl-65" value="portfolioId: int" style="text;html=1;strokeColor=none;fillColor=none;align=left;verticalAlign=middle;spacingLeft=4;spacingRight=4;overflow=hidden;rotatable=0;points=[[0,0.5],[1,0.5]];portConstraint=eastwest;whiteSpace=wrap;" vertex="1" parent="pPqEPjzdIibT3m7-79Cl-64">
          <mxGeometry y="20" width="320" height="20" as="geometry" />
        </mxCell>
        <mxCell id="pPqEPjzdIibT3m7-79Cl-66" value="assets: List&amp;lt;FinancialInstrument&amp;gt;" style="text;html=1;strokeColor=none;fillColor=none;align=left;verticalAlign=middle;spacingLeft=4;spacingRight=4;overflow=hidden;rotatable=0;points=[[0,0.5],[1,0.5]];portConstraint=eastwest;whiteSpace=wrap;" vertex="1" parent="pPqEPjzdIibT3m7-79Cl-64">
          <mxGeometry y="40" width="320" height="20" as="geometry" />
        </mxCell>
        <mxCell id="pPqEPjzdIibT3m7-79Cl-67" value="" style="line;strokeWidth=1;fillColor=none;align=left;verticalAlign=middle;spacingTop=-1;spacingLeft=3;spacingRight=3;rotatable=0;labelPosition=right;points=[];portConstraint=eastwest;" vertex="1" parent="pPqEPjzdIibT3m7-79Cl-64">
          <mxGeometry y="60" width="320" height="8" as="geometry" />
        </mxCell>
        <mxCell id="pPqEPjzdIibT3m7-79Cl-68" value="addAsset(asset: FinancialInstrument)" style="text;html=1;strokeColor=none;fillColor=none;align=left;verticalAlign=middle;spacingLeft=4;spacingRight=4;overflow=hidden;rotatable=0;points=[[0,0.5],[1,0.5]];portConstraint=eastwest;whiteSpace=wrap;" vertex="1" parent="pPqEPjzdIibT3m7-79Cl-64">
          <mxGeometry y="68" width="320" height="20" as="geometry" />
        </mxCell>
        <mxCell id="pPqEPjzdIibT3m7-79Cl-69" value="removeAsset(asset: FinancialInstrument)" style="text;html=1;strokeColor=none;fillColor=none;align=left;verticalAlign=middle;spacingLeft=4;spacingRight=4;overflow=hidden;rotatable=0;points=[[0,0.5],[1,0.5]];portConstraint=eastwest;whiteSpace=wrap;" vertex="1" parent="pPqEPjzdIibT3m7-79Cl-64">
          <mxGeometry y="88" width="320" height="20" as="geometry" />
        </mxCell>
        <mxCell id="pPqEPjzdIibT3m7-79Cl-71" value="FinancialInstrument&amp;nbsp;" style="swimlane;fontStyle=0;align=center;verticalAlign=top;childLayout=stackLayout;horizontal=1;startSize=20;horizontalStack=0;resizeParent=1;resizeParentMax=0;resizeLast=0;collapsible=0;marginBottom=0;html=1;whiteSpace=wrap;" vertex="1" parent="1">
          <mxGeometry x="-430" y="-584" width="320" height="88" as="geometry" />
        </mxCell>
        <mxCell id="pPqEPjzdIibT3m7-79Cl-72" value="instrumentId: int" style="text;html=1;strokeColor=none;fillColor=none;align=left;verticalAlign=middle;spacingLeft=4;spacingRight=4;overflow=hidden;rotatable=0;points=[[0,0.5],[1,0.5]];portConstraint=eastwest;whiteSpace=wrap;" vertex="1" parent="pPqEPjzdIibT3m7-79Cl-71">
          <mxGeometry y="20" width="320" height="20" as="geometry" />
        </mxCell>
        <mxCell id="pPqEPjzdIibT3m7-79Cl-73" value="name: String" style="text;html=1;strokeColor=none;fillColor=none;align=left;verticalAlign=middle;spacingLeft=4;spacingRight=4;overflow=hidden;rotatable=0;points=[[0,0.5],[1,0.5]];portConstraint=eastwest;whiteSpace=wrap;" vertex="1" parent="pPqEPjzdIibT3m7-79Cl-71">
          <mxGeometry y="40" width="320" height="20" as="geometry" />
        </mxCell>
        <mxCell id="pPqEPjzdIibT3m7-79Cl-78" value="value: float" style="text;html=1;strokeColor=none;fillColor=none;align=left;verticalAlign=middle;spacingLeft=4;spacingRight=4;overflow=hidden;rotatable=0;points=[[0,0.5],[1,0.5]];portConstraint=eastwest;whiteSpace=wrap;" vertex="1" parent="pPqEPjzdIibT3m7-79Cl-71">
          <mxGeometry y="60" width="320" height="20" as="geometry" />
        </mxCell>
        <mxCell id="pPqEPjzdIibT3m7-79Cl-74" value="" style="line;strokeWidth=1;fillColor=none;align=left;verticalAlign=middle;spacingTop=-1;spacingLeft=3;spacingRight=3;rotatable=0;labelPosition=right;points=[];portConstraint=eastwest;" vertex="1" parent="pPqEPjzdIibT3m7-79Cl-71">
          <mxGeometry y="80" width="320" height="8" as="geometry" />
        </mxCell>
        <mxCell id="pPqEPjzdIibT3m7-79Cl-79" value="InvestTrack" style="swimlane;fontStyle=0;align=center;verticalAlign=top;childLayout=stackLayout;horizontal=1;startSize=20;horizontalStack=0;resizeParent=1;resizeParentMax=0;resizeLast=0;collapsible=0;marginBottom=0;html=1;whiteSpace=wrap;" vertex="1" parent="1">
          <mxGeometry x="-1020" y="-710" width="280" height="188" as="geometry" />
        </mxCell>
        <mxCell id="pPqEPjzdIibT3m7-79Cl-80" value="systemId: int" style="text;html=1;strokeColor=none;fillColor=none;align=left;verticalAlign=middle;spacingLeft=4;spacingRight=4;overflow=hidden;rotatable=0;points=[[0,0.5],[1,0.5]];portConstraint=eastwest;whiteSpace=wrap;" vertex="1" parent="pPqEPjzdIibT3m7-79Cl-79">
          <mxGeometry y="20" width="280" height="20" as="geometry" />
        </mxCell>
        <mxCell id="pPqEPjzdIibT3m7-79Cl-88" value="activeUsers: int" style="text;html=1;strokeColor=none;fillColor=none;align=left;verticalAlign=middle;spacingLeft=4;spacingRight=4;overflow=hidden;rotatable=0;points=[[0,0.5],[1,0.5]];portConstraint=eastwest;whiteSpace=wrap;" vertex="1" parent="pPqEPjzdIibT3m7-79Cl-79">
          <mxGeometry y="40" width="280" height="20" as="geometry" />
        </mxCell>
        <mxCell id="pPqEPjzdIibT3m7-79Cl-90" value="financialData: List&amp;lt;FinancialInstrument&amp;gt;" style="text;html=1;strokeColor=none;fillColor=none;align=left;verticalAlign=middle;spacingLeft=4;spacingRight=4;overflow=hidden;rotatable=0;points=[[0,0.5],[1,0.5]];portConstraint=eastwest;whiteSpace=wrap;" vertex="1" parent="pPqEPjzdIibT3m7-79Cl-79">
          <mxGeometry y="60" width="280" height="20" as="geometry" />
        </mxCell>
        <mxCell id="pPqEPjzdIibT3m7-79Cl-89" value="articles: List&amp;lt;Article&amp;gt;" style="text;html=1;strokeColor=none;fillColor=none;align=left;verticalAlign=middle;spacingLeft=4;spacingRight=4;overflow=hidden;rotatable=0;points=[[0,0.5],[1,0.5]];portConstraint=eastwest;whiteSpace=wrap;" vertex="1" parent="pPqEPjzdIibT3m7-79Cl-79">
          <mxGeometry y="80" width="280" height="20" as="geometry" />
        </mxCell>
        <mxCell id="pPqEPjzdIibT3m7-79Cl-81" value="" style="line;strokeWidth=1;fillColor=none;align=left;verticalAlign=middle;spacingTop=-1;spacingLeft=3;spacingRight=3;rotatable=0;labelPosition=right;points=[];portConstraint=eastwest;" vertex="1" parent="pPqEPjzdIibT3m7-79Cl-79">
          <mxGeometry y="100" width="280" height="8" as="geometry" />
        </mxCell>
        <mxCell id="pPqEPjzdIibT3m7-79Cl-82" value="analyzeFinancialInstruments()" style="text;html=1;strokeColor=none;fillColor=none;align=left;verticalAlign=middle;spacingLeft=4;spacingRight=4;overflow=hidden;rotatable=0;points=[[0,0.5],[1,0.5]];portConstraint=eastwest;whiteSpace=wrap;" vertex="1" parent="pPqEPjzdIibT3m7-79Cl-79">
          <mxGeometry y="108" width="280" height="20" as="geometry" />
        </mxCell>
        <mxCell id="pPqEPjzdIibT3m7-79Cl-83" value="monitorFinancialInstruments()" style="text;html=1;strokeColor=none;fillColor=none;align=left;verticalAlign=middle;spacingLeft=4;spacingRight=4;overflow=hidden;rotatable=0;points=[[0,0.5],[1,0.5]];portConstraint=eastwest;whiteSpace=wrap;" vertex="1" parent="pPqEPjzdIibT3m7-79Cl-79">
          <mxGeometry y="128" width="280" height="20" as="geometry" />
        </mxCell>
        <mxCell id="pPqEPjzdIibT3m7-79Cl-84" value="manageUsers(user: User)" style="text;html=1;strokeColor=none;fillColor=none;align=left;verticalAlign=middle;spacingLeft=4;spacingRight=4;overflow=hidden;rotatable=0;points=[[0,0.5],[1,0.5]];portConstraint=eastwest;whiteSpace=wrap;" vertex="1" parent="pPqEPjzdIibT3m7-79Cl-79">
          <mxGeometry y="148" width="280" height="20" as="geometry" />
        </mxCell>
        <mxCell id="pPqEPjzdIibT3m7-79Cl-85" value="manageArticles(article: Article)" style="text;html=1;strokeColor=none;fillColor=none;align=left;verticalAlign=middle;spacingLeft=4;spacingRight=4;overflow=hidden;rotatable=0;points=[[0,0.5],[1,0.5]];portConstraint=eastwest;whiteSpace=wrap;" vertex="1" parent="pPqEPjzdIibT3m7-79Cl-79">
          <mxGeometry y="168" width="280" height="20" as="geometry" />
        </mxCell>
        <mxCell id="pPqEPjzdIibT3m7-79Cl-92" value="ExchangeSystem&amp;nbsp;" style="swimlane;fontStyle=0;align=center;verticalAlign=top;childLayout=stackLayout;horizontal=1;startSize=20;horizontalStack=0;resizeParent=1;resizeParentMax=0;resizeLast=0;collapsible=0;marginBottom=0;html=1;whiteSpace=wrap;" vertex="1" parent="1">
          <mxGeometry x="-840" y="-400" width="280" height="88" as="geometry" />
        </mxCell>
        <mxCell id="pPqEPjzdIibT3m7-79Cl-93" value="exchangeSystemId: int" style="text;html=1;strokeColor=none;fillColor=none;align=left;verticalAlign=middle;spacingLeft=4;spacingRight=4;overflow=hidden;rotatable=0;points=[[0,0.5],[1,0.5]];portConstraint=eastwest;whiteSpace=wrap;" vertex="1" parent="pPqEPjzdIibT3m7-79Cl-92">
          <mxGeometry y="20" width="280" height="20" as="geometry" />
        </mxCell>
        <mxCell id="pPqEPjzdIibT3m7-79Cl-94" value="marketData: List&amp;lt;FinancialInstrument&amp;gt;" style="text;html=1;strokeColor=none;fillColor=none;align=left;verticalAlign=middle;spacingLeft=4;spacingRight=4;overflow=hidden;rotatable=0;points=[[0,0.5],[1,0.5]];portConstraint=eastwest;whiteSpace=wrap;" vertex="1" parent="pPqEPjzdIibT3m7-79Cl-92">
          <mxGeometry y="40" width="280" height="20" as="geometry" />
        </mxCell>
        <mxCell id="pPqEPjzdIibT3m7-79Cl-97" value="" style="line;strokeWidth=1;fillColor=none;align=left;verticalAlign=middle;spacingTop=-1;spacingLeft=3;spacingRight=3;rotatable=0;labelPosition=right;points=[];portConstraint=eastwest;" vertex="1" parent="pPqEPjzdIibT3m7-79Cl-92">
          <mxGeometry y="60" width="280" height="8" as="geometry" />
        </mxCell>
        <mxCell id="pPqEPjzdIibT3m7-79Cl-98" value="provideFinancialInstrumentData()" style="text;html=1;strokeColor=none;fillColor=none;align=left;verticalAlign=middle;spacingLeft=4;spacingRight=4;overflow=hidden;rotatable=0;points=[[0,0.5],[1,0.5]];portConstraint=eastwest;whiteSpace=wrap;" vertex="1" parent="pPqEPjzdIibT3m7-79Cl-92">
          <mxGeometry y="68" width="280" height="20" as="geometry" />
        </mxCell>
        <mxCell id="pPqEPjzdIibT3m7-79Cl-136" style="edgeStyle=orthogonalEdgeStyle;rounded=0;orthogonalLoop=1;jettySize=auto;html=1;entryX=0.5;entryY=1;entryDx=0;entryDy=0;exitX=0.025;exitY=-0.032;exitDx=0;exitDy=0;exitPerimeter=0;strokeWidth=2;startArrow=diamondThin;startFill=1;endArrow=none;" edge="1" parent="1" source="pPqEPjzdIibT3m7-79Cl-102" target="pPqEPjzdIibT3m7-79Cl-112">
          <mxGeometry relative="1" as="geometry" />
        </mxCell>
        <mxCell id="pPqEPjzdIibT3m7-79Cl-102" value="BankingSystem" style="swimlane;fontStyle=0;align=center;verticalAlign=top;childLayout=stackLayout;horizontal=1;startSize=20;horizontalStack=0;resizeParent=1;resizeParentMax=0;resizeLast=0;collapsible=0;marginBottom=0;html=1;whiteSpace=wrap;" vertex="1" parent="1">
          <mxGeometry x="-1290" y="-400" width="330" height="88" as="geometry" />
        </mxCell>
        <mxCell id="pPqEPjzdIibT3m7-79Cl-103" value="bankSystemId: int" style="text;html=1;strokeColor=none;fillColor=none;align=left;verticalAlign=middle;spacingLeft=4;spacingRight=4;overflow=hidden;rotatable=0;points=[[0,0.5],[1,0.5]];portConstraint=eastwest;whiteSpace=wrap;" vertex="1" parent="pPqEPjzdIibT3m7-79Cl-102">
          <mxGeometry y="20" width="330" height="20" as="geometry" />
        </mxCell>
        <mxCell id="pPqEPjzdIibT3m7-79Cl-104" value="transactionHistory: List&amp;lt;Transaction&amp;gt;" style="text;html=1;strokeColor=none;fillColor=none;align=left;verticalAlign=middle;spacingLeft=4;spacingRight=4;overflow=hidden;rotatable=0;points=[[0,0.5],[1,0.5]];portConstraint=eastwest;whiteSpace=wrap;" vertex="1" parent="pPqEPjzdIibT3m7-79Cl-102">
          <mxGeometry y="40" width="330" height="20" as="geometry" />
        </mxCell>
        <mxCell id="pPqEPjzdIibT3m7-79Cl-107" value="" style="line;strokeWidth=1;fillColor=none;align=left;verticalAlign=middle;spacingTop=-1;spacingLeft=3;spacingRight=3;rotatable=0;labelPosition=right;points=[];portConstraint=eastwest;" vertex="1" parent="pPqEPjzdIibT3m7-79Cl-102">
          <mxGeometry y="60" width="330" height="8" as="geometry" />
        </mxCell>
        <mxCell id="pPqEPjzdIibT3m7-79Cl-111" value="processCashlessPayments(transaction: Transaction)" style="text;html=1;strokeColor=none;fillColor=none;align=left;verticalAlign=middle;spacingLeft=4;spacingRight=4;overflow=hidden;rotatable=0;points=[[0,0.5],[1,0.5]];portConstraint=eastwest;whiteSpace=wrap;" vertex="1" parent="pPqEPjzdIibT3m7-79Cl-102">
          <mxGeometry y="68" width="330" height="20" as="geometry" />
        </mxCell>
        <mxCell id="pPqEPjzdIibT3m7-79Cl-112" value="Transaction&amp;nbsp;" style="swimlane;fontStyle=0;align=center;verticalAlign=top;childLayout=stackLayout;horizontal=1;startSize=20;horizontalStack=0;resizeParent=1;resizeParentMax=0;resizeLast=0;collapsible=0;marginBottom=0;html=1;whiteSpace=wrap;" vertex="1" parent="1">
          <mxGeometry x="-1530" y="-600" width="330" height="88" as="geometry" />
        </mxCell>
        <mxCell id="pPqEPjzdIibT3m7-79Cl-113" value="transactionId: int" style="text;html=1;strokeColor=none;fillColor=none;align=left;verticalAlign=middle;spacingLeft=4;spacingRight=4;overflow=hidden;rotatable=0;points=[[0,0.5],[1,0.5]];portConstraint=eastwest;whiteSpace=wrap;" vertex="1" parent="pPqEPjzdIibT3m7-79Cl-112">
          <mxGeometry y="20" width="330" height="20" as="geometry" />
        </mxCell>
        <mxCell id="pPqEPjzdIibT3m7-79Cl-114" value="amount: float" style="text;html=1;strokeColor=none;fillColor=none;align=left;verticalAlign=middle;spacingLeft=4;spacingRight=4;overflow=hidden;rotatable=0;points=[[0,0.5],[1,0.5]];portConstraint=eastwest;whiteSpace=wrap;" vertex="1" parent="pPqEPjzdIibT3m7-79Cl-112">
          <mxGeometry y="40" width="330" height="20" as="geometry" />
        </mxCell>
        <mxCell id="pPqEPjzdIibT3m7-79Cl-117" value="date: Date" style="text;html=1;strokeColor=none;fillColor=none;align=left;verticalAlign=middle;spacingLeft=4;spacingRight=4;overflow=hidden;rotatable=0;points=[[0,0.5],[1,0.5]];portConstraint=eastwest;whiteSpace=wrap;" vertex="1" parent="pPqEPjzdIibT3m7-79Cl-112">
          <mxGeometry y="60" width="330" height="20" as="geometry" />
        </mxCell>
        <mxCell id="pPqEPjzdIibT3m7-79Cl-115" value="" style="line;strokeWidth=1;fillColor=none;align=left;verticalAlign=middle;spacingTop=-1;spacingLeft=3;spacingRight=3;rotatable=0;labelPosition=right;points=[];portConstraint=eastwest;" vertex="1" parent="pPqEPjzdIibT3m7-79Cl-112">
          <mxGeometry y="80" width="330" height="8" as="geometry" />
        </mxCell>
        <mxCell id="pPqEPjzdIibT3m7-79Cl-120" value="" style="html=1;verticalAlign=bottom;labelBackgroundColor=none;startArrow=block;startFill=1;startSize=2;endArrow=none;rounded=0;exitX=0;exitY=0.5;exitDx=0;exitDy=0;entryX=0.5;entryY=0;entryDx=0;entryDy=0;edgeStyle=orthogonalEdgeStyle;curved=1;dashed=1;strokeWidth=2;" edge="1" parent="1" source="pPqEPjzdIibT3m7-79Cl-8" target="pPqEPjzdIibT3m7-79Cl-29">
          <mxGeometry x="-1" y="3" relative="1" as="geometry">
            <mxPoint x="-935" y="-1210" as="sourcePoint" />
            <mxPoint x="-1375" y="-1030" as="targetPoint" />
          </mxGeometry>
        </mxCell>
        <mxCell id="pPqEPjzdIibT3m7-79Cl-121" value="" style="html=1;verticalAlign=bottom;labelBackgroundColor=none;startArrow=block;startFill=1;startSize=2;endArrow=none;rounded=0;exitX=1;exitY=0.5;exitDx=0;exitDy=0;entryX=0.5;entryY=0;entryDx=0;entryDy=0;edgeStyle=orthogonalEdgeStyle;curved=1;strokeWidth=2;dashed=1;" edge="1" parent="1" source="pPqEPjzdIibT3m7-79Cl-10" target="pPqEPjzdIibT3m7-79Cl-54">
          <mxGeometry x="-1" y="3" relative="1" as="geometry">
            <mxPoint x="-420" y="-1230" as="sourcePoint" />
            <mxPoint x="-860" y="-1050" as="targetPoint" />
          </mxGeometry>
        </mxCell>
        <mxCell id="pPqEPjzdIibT3m7-79Cl-123" value="" style="html=1;verticalAlign=bottom;labelBackgroundColor=none;startArrow=block;startFill=1;startSize=2;endArrow=none;rounded=0;entryX=0.5;entryY=0;entryDx=0;entryDy=0;edgeStyle=orthogonalEdgeStyle;curved=1;exitX=0.498;exitY=0.971;exitDx=0;exitDy=0;exitPerimeter=0;strokeWidth=2;dashed=1;" edge="1" parent="1" source="pPqEPjzdIibT3m7-79Cl-11" target="pPqEPjzdIibT3m7-79Cl-35">
          <mxGeometry x="-1" y="3" relative="1" as="geometry">
            <mxPoint x="-875" y="-1170" as="sourcePoint" />
            <mxPoint x="-1125" y="-1030" as="targetPoint" />
            <Array as="points" />
          </mxGeometry>
        </mxCell>
        <mxCell id="pPqEPjzdIibT3m7-79Cl-125" style="edgeStyle=orthogonalEdgeStyle;rounded=0;orthogonalLoop=1;jettySize=auto;html=1;entryX=0;entryY=0.093;entryDx=0;entryDy=0;exitX=0;exitY=0.5;exitDx=0;exitDy=0;entryPerimeter=0;startArrow=diamondThin;startFill=1;endArrow=none;strokeWidth=2;" edge="1" parent="1" source="pPqEPjzdIibT3m7-79Cl-63" target="pPqEPjzdIibT3m7-79Cl-64">
          <mxGeometry relative="1" as="geometry">
            <Array as="points">
              <mxPoint x="-460" y="-990" />
            </Array>
          </mxGeometry>
        </mxCell>
        <mxCell id="pPqEPjzdIibT3m7-79Cl-126" style="edgeStyle=orthogonalEdgeStyle;rounded=0;orthogonalLoop=1;jettySize=auto;html=1;entryX=0.003;entryY=0.108;entryDx=0;entryDy=0;entryPerimeter=0;strokeWidth=2;" edge="1" parent="1" source="pPqEPjzdIibT3m7-79Cl-66" target="pPqEPjzdIibT3m7-79Cl-71">
          <mxGeometry relative="1" as="geometry" />
        </mxCell>
        <mxCell id="pPqEPjzdIibT3m7-79Cl-127" style="edgeStyle=orthogonalEdgeStyle;rounded=0;orthogonalLoop=1;jettySize=auto;html=1;exitX=1.013;exitY=0.109;exitDx=0;exitDy=0;exitPerimeter=0;strokeWidth=2;entryX=0.005;entryY=0.056;entryDx=0;entryDy=0;entryPerimeter=0;" edge="1" parent="1" target="pPqEPjzdIibT3m7-79Cl-79">
          <mxGeometry relative="1" as="geometry">
            <mxPoint x="-1278.3899999999999" y="-1029.998" as="sourcePoint" />
            <mxPoint x="-1030" y="-700" as="targetPoint" />
            <Array as="points">
              <mxPoint x="-1271" y="-1030" />
              <mxPoint x="-1271" y="-699" />
            </Array>
          </mxGeometry>
        </mxCell>
        <mxCell id="pPqEPjzdIibT3m7-79Cl-129" style="edgeStyle=orthogonalEdgeStyle;rounded=0;orthogonalLoop=1;jettySize=auto;html=1;entryX=0.007;entryY=0.05;entryDx=0;entryDy=0;exitX=-0.002;exitY=0.06;exitDx=0;exitDy=0;exitPerimeter=0;entryPerimeter=0;strokeWidth=2;" edge="1" parent="1" source="pPqEPjzdIibT3m7-79Cl-35" target="pPqEPjzdIibT3m7-79Cl-79">
          <mxGeometry relative="1" as="geometry">
            <Array as="points">
              <mxPoint x="-1030" y="-1030" />
              <mxPoint x="-1030" y="-701" />
            </Array>
          </mxGeometry>
        </mxCell>
        <mxCell id="pPqEPjzdIibT3m7-79Cl-131" value="" style="endArrow=block;startArrow=none;endFill=1;startFill=0;endSize=8;html=1;verticalAlign=bottom;labelBackgroundColor=none;strokeWidth=2;rounded=0;exitX=1.008;exitY=0.11;exitDx=0;exitDy=0;exitPerimeter=0;edgeStyle=orthogonalEdgeStyle;" edge="1" parent="1" source="pPqEPjzdIibT3m7-79Cl-29">
          <mxGeometry width="160" relative="1" as="geometry">
            <mxPoint x="-1000" y="-840" as="sourcePoint" />
            <mxPoint x="-1020" y="-700" as="targetPoint" />
            <Array as="points">
              <mxPoint x="-1040" y="-1028" />
              <mxPoint x="-1040" y="-700" />
              <mxPoint x="-1020" y="-700" />
            </Array>
          </mxGeometry>
        </mxCell>
        <mxCell id="pPqEPjzdIibT3m7-79Cl-132" style="edgeStyle=orthogonalEdgeStyle;rounded=0;orthogonalLoop=1;jettySize=auto;html=1;entryX=1.002;entryY=0.061;entryDx=0;entryDy=0;entryPerimeter=0;exitX=-0.006;exitY=0.091;exitDx=0;exitDy=0;exitPerimeter=0;strokeWidth=2;" edge="1" parent="1" source="pPqEPjzdIibT3m7-79Cl-45" target="pPqEPjzdIibT3m7-79Cl-79">
          <mxGeometry relative="1" as="geometry">
            <mxPoint x="-730" y="-700" as="targetPoint" />
            <Array as="points">
              <mxPoint x="-720" y="-1030" />
              <mxPoint x="-720" y="-699" />
            </Array>
          </mxGeometry>
        </mxCell>
        <mxCell id="pPqEPjzdIibT3m7-79Cl-133" style="edgeStyle=orthogonalEdgeStyle;rounded=0;orthogonalLoop=1;jettySize=auto;html=1;entryX=1.003;entryY=0.059;entryDx=0;entryDy=0;entryPerimeter=0;strokeWidth=2;" edge="1" parent="1" target="pPqEPjzdIibT3m7-79Cl-79">
          <mxGeometry relative="1" as="geometry">
            <mxPoint x="-440" y="-1030" as="sourcePoint" />
            <Array as="points">
              <mxPoint x="-470" y="-1030" />
              <mxPoint x="-470" y="-699" />
            </Array>
          </mxGeometry>
        </mxCell>
        <mxCell id="pPqEPjzdIibT3m7-79Cl-134" style="edgeStyle=orthogonalEdgeStyle;rounded=0;orthogonalLoop=1;jettySize=auto;html=1;entryX=0.5;entryY=0;entryDx=0;entryDy=0;strokeWidth=2;" edge="1" parent="1" source="pPqEPjzdIibT3m7-79Cl-83" target="pPqEPjzdIibT3m7-79Cl-102">
          <mxGeometry relative="1" as="geometry" />
        </mxCell>
        <mxCell id="pPqEPjzdIibT3m7-79Cl-135" style="edgeStyle=orthogonalEdgeStyle;rounded=0;orthogonalLoop=1;jettySize=auto;html=1;exitX=1;exitY=0.5;exitDx=0;exitDy=0;entryX=0.5;entryY=0;entryDx=0;entryDy=0;strokeWidth=2;" edge="1" parent="1" source="pPqEPjzdIibT3m7-79Cl-83" target="pPqEPjzdIibT3m7-79Cl-92">
          <mxGeometry relative="1" as="geometry" />
        </mxCell>
        <mxCell id="ZtysuUiAPKIv6l0-7_RE-5" value="" style="html=1;verticalAlign=bottom;labelBackgroundColor=none;startArrow=block;startFill=1;startSize=2;endArrow=none;rounded=0;exitX=1;exitY=0.5;exitDx=0;exitDy=0;entryX=0.5;entryY=0;entryDx=0;entryDy=0;edgeStyle=orthogonalEdgeStyle;curved=1;strokeWidth=2;dashed=1;" edge="1" parent="1" target="pPqEPjzdIibT3m7-79Cl-45">
          <mxGeometry x="-1" y="3" relative="1" as="geometry">
            <mxPoint x="-805" y="-1190" as="sourcePoint" />
            <mxPoint x="-585" y="-1040" as="targetPoint" />
          </mxGeometry>
        </mxCell>
        <mxCell id="ZtysuUiAPKIv6l0-7_RE-1" value="" style="rounded=0;whiteSpace=wrap;html=1;fillColor=none;" vertex="1" parent="1">
          <mxGeometry x="-1550" y="-1320" width="1460" height="1040" as="geometry" />
        </mxCell>
        <mxCell id="ZtysuUiAPKIv6l0-7_RE-7" value="" style="html=1;verticalAlign=bottom;labelBackgroundColor=none;startArrow=block;startFill=1;startSize=2;endArrow=none;rounded=0;exitX=0;exitY=0.5;exitDx=0;exitDy=0;edgeStyle=orthogonalEdgeStyle;curved=1;dashed=1;strokeWidth=2;entryX=0.5;entryY=0;entryDx=0;entryDy=0;" edge="1" parent="1" target="pPqEPjzdIibT3m7-79Cl-12">
          <mxGeometry x="-1" y="3" relative="1" as="geometry">
            <mxPoint x="-945" y="-1220" as="sourcePoint" />
            <mxPoint x="-1155" y="-1068" as="targetPoint" />
          </mxGeometry>
        </mxCell>
      </root>
    </mxGraphModel>
  </diagram>
</mxfile>
